<svg xmlns="http://www.w3.org/2000/svg" viewBox="0 0 920 580" width="920" height="580" font-family="'JetBrains Mono', ui-monospace, Menlo, monospace">
  <rect width="920" height="580" fill="#f6f2ea"/>

  <defs>
    <marker id="arrow-faint" viewBox="0 0 10 10" refX="8" refY="5" markerWidth="6" markerHeight="6" orient="auto-start-reverse">
      <path d="M2 1L8 5L2 9" fill="none" stroke="context-stroke" stroke-width="1.4" stroke-linecap="round" stroke-linejoin="round"/>
    </marker>
  </defs>

  <text x="50" y="40" font-size="11" fill="#8a877e" letter-spacing="2.4" font-weight="500">HUB INCIDENTS DASHBOARD — ARCHITECTURE</text>
  <text x="870" y="40" font-size="10" fill="#8a877e" text-anchor="end" font-weight="400">medallion · bronze · silver · gold</text>

  <text x="155" y="80" font-size="10" fill="#8a877e" letter-spacing="2.4" text-anchor="middle" font-weight="500">BRONZE · RAW INGESTION</text>
  <text x="460" y="80" font-size="10" fill="#8a877e" letter-spacing="2.4" text-anchor="middle" font-weight="500">SILVER · REFINED</text>
  <text x="755" y="80" font-size="10" fill="#8a877e" letter-spacing="2.4" text-anchor="middle" font-weight="500">GOLD · CONSUMED</text>

  <line x1="305" y1="100" x2="305" y2="460" stroke="#d9d3c5" stroke-width="0.6" stroke-dasharray="4 4"/>
  <line x1="610" y1="100" x2="610" y2="460" stroke="#d9d3c5" stroke-width="0.6" stroke-dasharray="4 4"/>

  <g>
    <rect x="50" y="115" width="210" height="56" rx="6" fill="#ffffff" stroke="#c25430" stroke-width="0.6"/>
    <text x="155" y="140" font-size="14" fill="#1a1a1a" text-anchor="middle" font-weight="500">ServiceNow</text>
    <text x="155" y="158" font-size="11" fill="#4a4843" text-anchor="middle">REST API · paginated</text>
  </g>
  <g>
    <rect x="50" y="185" width="210" height="56" rx="6" fill="#ffffff" stroke="#c25430" stroke-width="0.6"/>
    <text x="155" y="210" font-size="14" fill="#1a1a1a" text-anchor="middle" font-weight="500">Active Directory</text>
    <text x="155" y="228" font-size="11" fill="#4a4843" text-anchor="middle">user + group data</text>
  </g>
  <g>
    <rect x="50" y="255" width="210" height="56" rx="6" fill="#ffffff" stroke="#c25430" stroke-width="0.6"/>
    <text x="155" y="280" font-size="14" fill="#1a1a1a" text-anchor="middle" font-weight="500">PDQ Inventory</text>
    <text x="155" y="298" font-size="11" fill="#4a4843" text-anchor="middle">endpoint telemetry</text>
  </g>
  <g>
    <rect x="50" y="325" width="210" height="56" rx="6" fill="#ffffff" stroke="#c25430" stroke-width="0.6"/>
    <text x="155" y="350" font-size="14" fill="#1a1a1a" text-anchor="middle" font-weight="500">Asset Management</text>
    <text x="155" y="368" font-size="11" fill="#4a4843" text-anchor="middle">hardware inventory</text>
  </g>

  <line x1="260" y1="143" x2="350" y2="215" stroke="#c25430" stroke-width="0.9" marker-end="url(#arrow-faint)"/>
  <line x1="260" y1="213" x2="350" y2="230" stroke="#c25430" stroke-width="0.9" marker-end="url(#arrow-faint)"/>
  <line x1="260" y1="283" x2="350" y2="260" stroke="#c25430" stroke-width="0.9" marker-end="url(#arrow-faint)"/>
  <line x1="260" y1="353" x2="350" y2="275" stroke="#c25430" stroke-width="0.9" marker-end="url(#arrow-faint)"/>

  <g>
    <rect x="350" y="195" width="220" height="56" rx="6" fill="#efeae0" stroke="#8a877e" stroke-width="0.6"/>
    <text x="460" y="220" font-size="14" fill="#1a1a1a" text-anchor="middle" font-weight="500">Python + pandas ETL</text>
    <text x="460" y="238" font-size="11" fill="#4a4843" text-anchor="middle">normalize · join · validate</text>
  </g>
  <g>
    <rect x="350" y="265" width="220" height="56" rx="6" fill="#efeae0" stroke="#8a877e" stroke-width="0.6"/>
    <text x="460" y="290" font-size="14" fill="#1a1a1a" text-anchor="middle" font-weight="500">Anomaly Detection</text>
    <text x="460" y="308" font-size="11" fill="#4a4843" text-anchor="middle">26 fields · cross-source</text>
  </g>

  <line x1="460" y1="251" x2="460" y2="265" stroke="#4a4843" stroke-width="0.9" marker-end="url(#arrow-faint)"/>

  <line x1="570" y1="220" x2="655" y2="180" stroke="#4a4843" stroke-width="0.9" marker-end="url(#arrow-faint)"/>
  <line x1="570" y1="293" x2="655" y2="180" stroke="#4a4843" stroke-width="0.9" marker-end="url(#arrow-faint)"/>

  <g>
    <rect x="655" y="155" width="205" height="46" rx="6" fill="#ffffff" stroke="#c25430" stroke-width="0.6"/>
    <text x="757" y="178" font-size="13" fill="#1a1a1a" text-anchor="middle" font-weight="500">SharePoint CSVs</text>
    <text x="757" y="193" font-size="10" fill="#4a4843" text-anchor="middle">governed · access-controlled</text>
  </g>

  <line x1="757" y1="201" x2="757" y2="215" stroke="#c25430" stroke-width="0.9" marker-end="url(#arrow-faint)"/>

  <g>
    <rect x="635" y="215" width="245" height="200" rx="8" fill="#ffffff" stroke="#c25430" stroke-width="1.4"/>
    <path d="M643 215 L872 215 A8 8 0 0 1 880 223 L880 245 L635 245 L635 223 A8 8 0 0 1 643 215 Z" fill="#c25430"/>
    <text x="757" y="235" font-size="13" fill="#ffffff" text-anchor="middle" font-weight="500" letter-spacing="0.05em">HUB INCIDENTS DASHBOARD</text>

    <g>
      <rect x="649" y="258" width="108" height="46" rx="3" fill="#f6f2ea" stroke="#d9d3c5" stroke-width="0.5"/>
      <text x="703" y="275" font-size="9" fill="#8a877e" text-anchor="middle" letter-spacing="0.08em">MTTR</text>
      <text x="703" y="295" font-size="16" fill="#1a1a1a" text-anchor="middle" font-weight="500">4.2h</text>
    </g>
    <g>
      <rect x="761" y="258" width="108" height="46" rx="3" fill="#f6f2ea" stroke="#d9d3c5" stroke-width="0.5"/>
      <text x="815" y="275" font-size="9" fill="#8a877e" text-anchor="middle" letter-spacing="0.08em">SLA COMPLIANCE</text>
      <text x="815" y="295" font-size="16" fill="#1a1a1a" text-anchor="middle" font-weight="500">94.1%</text>
    </g>
    <g>
      <rect x="649" y="308" width="108" height="46" rx="3" fill="#f6f2ea" stroke="#d9d3c5" stroke-width="0.5"/>
      <text x="703" y="325" font-size="9" fill="#8a877e" text-anchor="middle" letter-spacing="0.08em">OPEN BACKLOG</text>
      <text x="703" y="345" font-size="16" fill="#1a1a1a" text-anchor="middle" font-weight="500">127</text>
    </g>
    <g>
      <rect x="761" y="308" width="108" height="46" rx="3" fill="#f6f2ea" stroke="#d9d3c5" stroke-width="0.5"/>
      <text x="815" y="325" font-size="9" fill="#8a877e" text-anchor="middle" letter-spacing="0.08em">REOPEN RATE</text>
      <text x="815" y="345" font-size="16" fill="#1a1a1a" text-anchor="middle" font-weight="500">6.3%</text>
    </g>

    <g>
      <rect x="649" y="358" width="220" height="48" rx="3" fill="#f6f2ea" stroke="#d9d3c5" stroke-width="0.5"/>
      <text x="657" y="371" font-size="8" fill="#8a877e" letter-spacing="0.08em">TICKET VOLUME · TREND + FORECAST</text>

      <polyline points="660,396 678,391 696,388 714,386 732,384 750,380 768,378 786,375"
        fill="none" stroke="#1a1a1a" stroke-width="1.5" stroke-linecap="round"/>
      <circle cx="786" cy="375" r="2" fill="#c25430"/>
      <polyline points="786,375 804,372 822,370 840,368 858,366"
        fill="none" stroke="#c25430" stroke-width="1.5" stroke-linecap="round" stroke-dasharray="3 3"/>
      <polygon points="786,377 804,374 822,372 840,370 858,368 858,364 840,366 822,368 804,370 786,373"
        fill="#c25430" opacity="0.12"/>
      <text x="660" y="402" font-size="7" fill="#8a877e">past 30d</text>
      <text x="858" y="402" font-size="7" fill="#c25430" text-anchor="end">forecast</text>
    </g>
  </g>

  <rect x="50" y="480" width="820" height="70" rx="8" fill="none" stroke="#d9d3c5" stroke-width="0.6" stroke-dasharray="4 3"/>
  <text x="68" y="504" font-size="10" fill="#8a877e" letter-spacing="2.4" font-weight="500">ORCHESTRATION</text>

  <g>
    <rect x="360" y="497" width="210" height="38" rx="6" fill="#ffffff" stroke="#c25430" stroke-width="0.6"/>
    <text x="465" y="521" font-size="13" fill="#1a1a1a" text-anchor="middle" font-weight="500">Windows Task Scheduler</text>
  </g>
  <text x="590" y="521" font-size="11" fill="#4a4843">daily refresh →</text>
  <text x="340" y="521" font-size="11" fill="#4a4843" text-anchor="end">triggers pipeline →</text>

  <line x1="465" y1="497" x2="465" y2="321" stroke="#b4b2a9" stroke-width="0.6" stroke-dasharray="2 5"/>
</svg>
